<svg width="132" height="78" viewBox="0 0 132 78" fill="none" xmlns="http://www.w3.org/2000/svg">
<rect width="132" height="78" rx="19.7797" fill="#169CC6"/>
<path fill-rule="evenodd" clip-rule="evenodd" d="M49.8501 42.806C50.3056 40.6778 50.3704 38.4288 49.9781 36.1528C48.3308 26.597 39.2489 20.1858 29.693 21.833C20.1372 23.4803 13.726 32.5622 15.3733 42.1181C17.0205 51.6739 26.1024 58.0851 35.6583 56.4379C40.3811 55.6237 44.3357 52.9936 46.9291 49.3878C47.1003 49.4691 47.2802 49.538 47.4679 49.5929L51.2981 50.7122C53.2019 51.2685 55.1963 50.1762 55.7526 48.2724C56.309 46.3686 55.2166 44.3742 53.3128 43.8179L49.8501 42.806ZM29.2038 28.3961C24.4258 29.2197 21.2203 33.7607 22.0439 38.5386L22.8573 43.2575C23.681 48.0354 28.2219 51.241 32.9999 50.4173L36.1457 49.875C40.9237 49.0514 44.1293 44.5105 43.3056 39.7325L42.4922 35.0137C41.6686 30.2358 37.1276 27.0302 32.3497 27.8538L29.2038 28.3961ZM26.8966 38.5118C26.0279 38.6616 25.4451 39.4872 25.5948 40.3559L25.7304 41.1424C25.8801 42.0111 26.7058 42.594 27.5745 42.4442L28.361 42.3086C29.2297 42.1589 29.8125 41.3332 29.6628 40.4645L29.5272 39.6781C29.3774 38.8093 28.5518 38.2265 27.6831 38.3763L26.8966 38.5118Z" fill="white"/>
<path d="M87.0792 21.7159L84.284 22.4648C84.1049 22.693 83.9686 22.8572 83.8753 22.9573L85.6294 22.4422L86.394 23.0257C86.6642 23.1936 86.8798 23.3536 87.0407 23.5057L83.0813 24.7017C83.0346 24.6392 82.9092 24.5076 82.7053 24.3069C82.1771 24.914 81.5566 25.5683 80.8436 26.2699C81.404 26.1197 81.9149 25.9528 82.3762 25.7691C82.4528 25.7186 82.4836 25.6653 82.4686 25.6092C82.4385 25.4972 82.3393 25.351 82.1709 25.1709C82.9538 25.0663 83.6362 24.951 84.2181 24.8251C84.8104 24.6814 85.5198 24.4988 86.3464 24.2773C86.8841 24.6589 87.2187 25.0948 87.3501 25.5852C87.4852 26.0896 87.3896 26.5732 87.0631 27.0361C86.7469 27.4812 86.2334 27.8066 85.5226 28.012C85.12 28.1349 84.4704 28.3165 83.5737 28.5568C80.2111 29.4578 77.7618 29.9564 76.2258 30.0526C75.5088 30.515 74.7721 30.9602 74.0158 31.3881L74.0788 31.3712L74.2985 32.1908L76.8625 31.5038L76.6428 30.6842L80.8251 29.5635L81.0447 30.3832L83.5667 29.7074L83.347 28.8878L87.6134 27.7446L88.8354 32.3052L84.569 33.4483L84.5127 33.2382L75.2445 35.7216L75.3008 35.9317L71.0345 37.0749L69.8125 32.5144L70.3379 32.3736C69.6753 31.4699 68.8392 30.8155 67.8296 30.4102L70.0585 29.5652L70.7771 29.3051C69.5644 29.3747 68.5513 29.4885 67.7376 29.6465C67.9633 29.2557 68.145 28.8691 68.2828 28.4868C68.4207 28.1044 68.5882 27.609 68.7856 27.0005L72.3644 26.402C72.3054 26.2376 72.2308 25.9873 72.1407 25.651L74.514 24.925C73.7544 24.9483 73.0373 24.9903 72.3628 25.0509L73.5186 23.4798L71.3119 24.0711L71.7793 25.8155L67.2608 27.0262L65.8698 21.8351L73.4147 19.8135L73.2457 19.183L77.9534 17.9216L78.1223 18.5521L85.6882 16.5248L87.0792 21.7159ZM78.7376 24.379C79.6205 23.5267 80.3833 22.6466 81.0259 21.7385L82.2566 21.7917L82.0933 21.1822L76.2927 22.7365C77.4139 22.6613 78.458 22.6068 79.425 22.5729L78.7376 24.379ZM76.594 26.2147C77.1467 25.8114 77.6395 25.409 78.0726 25.0076C77.4839 24.9401 76.82 24.9003 76.0809 24.8881C76.184 25.1608 76.2487 25.3462 76.275 25.4443C76.4043 25.8151 76.5107 26.0719 76.594 26.2147ZM72.5472 26.9161C72.4965 27.4553 72.3767 28.0731 72.1878 28.7694C72.4606 28.6663 72.7958 28.5164 73.1936 28.3197C72.9436 27.8911 72.7282 27.4233 72.5472 26.9161Z" fill="white"/>
<path d="M111.166 20.1806L118.816 22.2304L117.617 26.7069L115.641 26.1775L115.371 27.1863L114.719 27.0118C115.008 28.0651 115.367 29.1074 115.796 30.1385C115.073 30.0348 114.261 29.9825 113.361 29.9814C112.46 29.9803 111.68 30.034 111.02 30.1426C110.883 29.7005 110.796 29.407 110.76 29.2621L98.0475 26.3513C98.1191 25.8599 98.1528 25.4259 98.1486 25.0494C98.1622 24.6626 98.1362 24.115 98.0707 23.4067L100.904 24.0982L101.605 23.4978L99.2304 22.8615L99.5007 21.8527L97.5042 21.3177L98.7036 16.8412L106.354 18.891L106.539 18.1975L111.352 19.4871L111.166 20.1806ZM113.572 24.3166L113.69 23.8753L102.341 20.8344L102.223 21.2757L113.572 24.3166ZM110.301 26.436L110.243 25.8123L106.019 24.6804L105.397 25.2347L110.301 26.436ZM114.979 34.1992L107.77 32.2676L107.657 32.6879L115.37 34.7546L114.616 37.5708L94.6922 32.2323L95.4468 29.4162L103.16 31.4828L103.272 31.0625L96.0638 29.131L96.7509 26.567L103.959 28.4985L104.083 28.0362L108.581 29.2413L108.457 29.7036L115.666 31.6352L114.979 34.1992Z" fill="white"/>
<path d="M88.2363 59.649C87.7619 60.2427 87.3617 60.8113 87.0359 61.3547C86.7279 61.8878 86.3739 62.5363 85.974 63.3001C84.2435 62.6412 82.5492 61.7067 80.8912 60.4966C79.6885 60.6699 78.5037 60.7203 77.3367 60.6479C76.1876 60.5652 74.9054 60.3343 73.4903 59.9551C73.6213 59.0742 73.6584 58.1231 73.6017 57.1017C73.3354 57.8713 73.0241 58.3886 72.6678 58.6535C72.3292 58.9082 71.8526 59.0057 71.2379 58.9461C70.6409 58.8763 69.5942 58.6634 68.0978 58.3075L67.6298 58.2046C67.786 57.2854 67.8831 56.5305 67.9212 55.9401C67.9593 55.3496 67.8998 54.7029 67.7428 54.0001C68.3032 54.1503 68.7081 54.2363 68.9576 54.2581C69.2108 54.2658 69.3715 54.2263 69.4398 54.1395C69.5259 54.0424 69.6009 53.8748 69.6647 53.6366L69.7492 53.3214L68.3549 53.0604C68.7231 51.4622 68.948 50.1184 69.0297 49.029L70.791 49.4334L71.2189 47.8361L69.8529 47.4701L70.8496 43.7502L72.2157 44.1162L72.6774 42.3929L77.238 43.6149L76.7762 45.3382L77.3437 45.4903L77.4901 44.9438C79.8064 44.8737 81.2914 44.6559 81.945 44.2904L82.9406 45.0302L86.2822 45.9256L83.9564 54.6054L88.4539 55.8105L88.2098 58.403C87.7967 58.4876 87.5158 58.555 87.3672 58.6052L85.3818 59.2896C86.2122 59.4971 87.1637 59.6169 88.2363 59.649ZM88.8608 55.469L84.4684 54.292L85.1385 51.7911L86.4625 52.1459L86.6033 51.6205L85.2793 51.2657L85.848 49.143L87.1721 49.4978L87.2903 49.0565L85.9663 48.7017L86.5914 46.3689L90.9838 47.5458L88.8608 55.469ZM80.1628 47.3268L80.0896 47.6001L81.3926 47.9492L80.8238 50.0719L79.5208 49.7227L79.38 50.2481L80.683 50.5973L80.0129 53.0982L76.1879 52.0733L76.0487 52.509L80.315 53.6522L82.0269 47.2632C81.6111 47.302 81.0139 47.3447 80.2356 47.3914L80.1628 47.3268ZM75.7795 49.0581L75.4134 50.4242C75.6732 50.4637 75.8661 50.5004 75.9922 50.5342L76.3469 49.2102L75.7795 49.0581ZM73.938 55.9304C74.7644 56.3771 75.4288 56.7278 75.9312 56.9826C76.4513 57.2271 76.9318 57.4234 77.3727 57.5716C76.5998 56.8689 75.9306 56.2842 75.3649 55.8172L77.1705 55.4676L74.7747 54.8256L74.9267 54.2582L74.4111 54.1651L73.938 55.9304ZM79.8606 56.1884C80.2834 56.572 80.752 56.9529 81.2664 57.3309C81.3833 57.2872 81.7903 57.141 82.4877 56.8923L79.8606 56.1884Z" fill="white"/>
<path d="M117.776 54.4009C117.621 55.1447 117.52 55.8326 117.474 56.4646C117.44 57.0793 117.416 57.8178 117.404 58.6799C115.562 58.8722 113.628 58.8021 111.603 58.4697C110.608 59.1668 109.573 59.7461 108.499 60.2077C107.436 60.6521 106.187 61.0242 104.753 61.3239C104.473 60.4786 104.077 59.613 103.566 58.7269C103.675 59.5339 103.631 60.136 103.432 60.5331C103.245 60.9131 102.863 61.2151 102.288 61.4391C101.723 61.646 100.693 61.928 99.197 62.2852L98.7329 62.4044C98.4578 61.5135 98.2041 60.796 97.9718 60.2518C97.7395 59.7076 97.3948 59.1572 96.9377 58.6008C97.5056 58.4821 97.9058 58.3762 98.1383 58.2831C98.3678 58.1759 98.4934 58.0681 98.5153 57.9598C98.5483 57.8344 98.5396 57.651 98.4892 57.4096L98.4224 57.0901L97.0603 57.486C96.6682 55.8934 96.2629 54.5926 95.8446 53.5834L97.5989 53.1501L97.2606 51.5315L95.8763 51.8208L95.0884 48.0512L96.4727 47.7618L96.1077 46.0154L100.729 45.0495L101.094 46.7959L101.669 46.6757L101.554 46.122C103.589 45.0148 104.817 44.1508 105.235 43.5298L106.457 43.7412L109.844 43.0334L111.682 51.8293L116.24 50.8767L117.191 53.3008C116.86 53.5625 116.64 53.7493 116.53 53.8612L115.067 55.3674C115.901 55.1781 116.805 54.8559 117.776 54.4009ZM116.449 50.3884L111.998 51.3187L111.468 48.7843L112.81 48.5039L112.698 47.9715L111.357 48.2519L110.907 46.1009L112.249 45.8204L112.155 45.3732L110.814 45.6536L110.32 43.2896L114.771 42.3593L116.449 50.3884ZM105.014 47.0436L105.072 47.3205L106.392 47.0445L106.842 49.1956L105.521 49.4716L105.632 50.004L106.953 49.728L107.483 52.2624L103.606 53.0726L103.679 53.5243L108.002 52.6206L106.649 46.1462C106.295 46.3683 105.781 46.6757 105.108 47.0684L105.014 47.0436ZM101.882 50.5656L102.171 51.9499C102.421 51.8681 102.61 51.8138 102.738 51.7871L102.457 50.4454L101.882 50.5656ZM103.338 57.5298C104.277 57.5559 105.028 57.5693 105.591 57.5701C106.166 57.5538 106.683 57.5123 107.143 57.4457C106.137 57.1671 105.276 56.947 104.56 56.7853L106.014 55.659L103.586 56.1665L103.466 55.5914L102.964 55.7408L103.338 57.5298ZM108.74 55.0892C109.291 55.2409 109.881 55.3695 110.51 55.475C110.595 55.3833 110.892 55.0692 111.402 54.5328L108.74 55.0892Z" fill="white"/>
</svg>
