<svg width="87" height="50" viewBox="0 0 87 50" fill="none" xmlns="http://www.w3.org/2000/svg">
<rect x="0.857422" y="0.00646973" width="85.8544" height="50" rx="12.7215" fill="#33302E"/>
<path fill-rule="evenodd" clip-rule="evenodd" d="M32.9166 27.4543C33.2096 26.0856 33.2513 24.6391 32.9989 23.1753C31.9395 17.0293 26.0984 12.9059 19.9524 13.9654C13.8065 15.0248 9.68307 20.8659 10.7425 27.0119C11.802 33.1578 17.6431 37.2812 23.789 36.2218C26.8265 35.6982 29.37 34.0066 31.0379 31.6874C31.148 31.7398 31.2637 31.7841 31.3845 31.8194L33.8479 32.5392C35.0724 32.8971 36.3551 32.1945 36.7129 30.9701C37.0707 29.7456 36.3682 28.4629 35.1437 28.1051L32.9166 27.4543ZM19.6385 18.1865C16.5656 18.7162 14.5039 21.6368 15.0336 24.7097L15.5568 27.7447C16.0865 30.8177 19.0071 32.8794 22.08 32.3497L24.1033 32.0009C27.1763 31.4712 29.238 28.5506 28.7083 25.4776L28.1851 22.4427C27.6554 19.3697 24.7348 17.308 21.6619 17.8377L19.6385 18.1865ZM18.1547 24.6924C17.5959 24.7887 17.2211 25.3197 17.3174 25.8784L17.4046 26.3842C17.5009 26.943 18.0319 27.3178 18.5906 27.2215L19.0965 27.1343C19.6552 27.038 20.0301 26.507 19.9337 25.9483L19.8465 25.4424C19.7502 24.8837 19.2192 24.5089 18.6605 24.6052L18.1547 24.6924Z" fill="white"/>
<path d="M56.8431 14.0943L55.0454 14.576C54.9302 14.7228 54.8426 14.8284 54.7825 14.8927L55.9107 14.5615L56.4024 14.9368C56.5762 15.0447 56.7149 15.1476 56.8184 15.2455L54.2719 16.0147C54.2418 15.9745 54.1612 15.8899 54.03 15.7608C53.6903 16.1512 53.2912 16.5721 52.8326 17.0233C53.1931 16.9267 53.5217 16.8194 53.8184 16.7012C53.8676 16.6687 53.8874 16.6344 53.8778 16.5984C53.8584 16.5263 53.7946 16.4323 53.6863 16.3165C54.1898 16.2492 54.6287 16.175 55.003 16.0941C55.3839 16.0017 55.8402 15.8842 56.3718 15.7418C56.7177 15.9871 56.9329 16.2675 57.0174 16.5829C57.1043 16.9073 57.0428 17.2184 56.8328 17.5161C56.6294 17.8024 56.2991 18.0116 55.842 18.1438C55.5831 18.2228 55.1653 18.3396 54.5885 18.4941C52.4258 19.0736 50.8506 19.3943 49.8627 19.4562C49.4015 19.7536 48.9277 20.0399 48.4413 20.3151L48.4818 20.3043L48.6231 20.8314L50.2721 20.3896L50.1309 19.8624L52.8207 19.1416L52.962 19.6688L54.584 19.2342L54.4428 18.707L57.1867 17.9718L57.9726 20.905L55.2287 21.6402L55.1925 21.505L49.2316 23.1022L49.2678 23.2374L46.5239 23.9726L45.7379 21.0395L46.0758 20.9489C45.6497 20.3677 45.1119 19.9468 44.4626 19.6862L45.8961 19.1427L46.3583 18.9754C45.5784 19.0202 44.9267 19.0934 44.4034 19.195C44.5485 18.9436 44.6654 18.695 44.7541 18.4491C44.8427 18.2032 44.9505 17.8846 45.0774 17.4932L47.3792 17.1083C47.3412 17.0025 47.2932 16.8416 47.2353 16.6253L48.7617 16.1583C48.2732 16.1733 47.812 16.2003 47.3782 16.2393L48.1215 15.2288L46.7022 15.6091L47.0029 16.731L44.0967 17.5097L43.2021 14.1711L48.0547 12.8708L47.946 12.4653L50.9738 11.654L51.0825 12.0595L55.9485 10.7557L56.8431 14.0943ZM51.4782 15.8071C52.046 15.259 52.5366 14.6929 52.9499 14.1089L53.7414 14.1431L53.6364 13.7511L49.9057 14.7508C50.6268 14.7024 51.2983 14.6674 51.9203 14.6456L51.4782 15.8071ZM50.0995 16.9878C50.455 16.7284 50.7719 16.4696 51.0505 16.2115C50.6718 16.1681 50.2448 16.1424 49.7695 16.1346C49.8358 16.31 49.8774 16.4292 49.8943 16.4923C49.9775 16.7308 50.0459 16.8959 50.0995 16.9878ZM47.4968 17.4389C47.4641 17.7857 47.3871 18.183 47.2656 18.6309C47.441 18.5646 47.6567 18.4682 47.9125 18.3417C47.7517 18.066 47.6131 17.7651 47.4968 17.4389Z" fill="white"/>
<path d="M72.3769 13.1069L77.2971 14.4252L76.5256 17.3043L75.255 16.9639L75.0812 17.6127L74.6622 17.5004C74.8476 18.1779 75.0785 18.8482 75.3547 19.5114C74.8897 19.4447 74.3675 19.411 73.7882 19.4104C73.2089 19.4097 72.7071 19.4442 72.2827 19.514C72.1947 19.2297 72.1391 19.0409 72.1157 18.9477L63.9395 17.0756C63.9855 16.7596 64.0072 16.4805 64.0045 16.2383C64.0132 15.9895 63.9965 15.6373 63.9544 15.1818L65.7765 15.6265L66.2276 15.2404L64.7002 14.8311L64.8741 14.1823L63.59 13.8382L64.3614 10.9591L69.2816 12.2775L69.4011 11.8314L72.4964 12.6608L72.3769 13.1069ZM73.9242 15.767L74.0002 15.4832L66.7011 13.5274L66.6251 13.8112L73.9242 15.767ZM71.8204 17.1301L71.7831 16.729L69.0662 16.001L68.6664 16.3574L71.8204 17.1301ZM74.8288 22.123L70.1925 20.8808L70.1201 21.1511L75.0808 22.4803L74.5954 24.2916L61.7815 20.8581L62.2668 19.0468L67.2275 20.376L67.2999 20.1057L62.6636 18.8634L63.1055 17.2143L67.7418 18.4566L67.8215 18.1593L70.7141 18.9343L70.6344 19.2317L75.2707 20.474L74.8288 22.123Z" fill="white"/>
<path d="M57.6287 38.4915C57.3236 38.8733 57.0662 39.239 56.8567 39.5885C56.6586 39.9314 56.4309 40.3485 56.1737 40.8397C55.0607 40.4159 53.971 39.8149 52.9047 39.0366C52.1311 39.1481 51.3691 39.1805 50.6186 39.1339C49.8795 39.0808 49.0548 38.9322 48.1447 38.6884C48.2289 38.1218 48.2528 37.5101 48.2163 36.8532C48.0451 37.3482 47.8448 37.6808 47.6157 37.8512C47.3979 38.015 47.0914 38.0778 46.696 38.0394C46.3121 37.9945 45.6389 37.8576 44.6764 37.6287L44.3754 37.5625C44.4759 36.9713 44.5384 36.4858 44.5629 36.106C44.5874 35.7263 44.5491 35.3104 44.4481 34.8584C44.8085 34.9549 45.069 35.0102 45.2294 35.0242C45.3923 35.0292 45.4957 35.0038 45.5396 34.948C45.595 34.8856 45.6432 34.7778 45.6842 34.6246L45.7385 34.4218L44.8418 34.254C45.0786 33.226 45.2233 32.3618 45.2758 31.6611L46.4086 31.9212L46.6838 30.8939L45.8052 30.6585L46.4463 28.266L47.3249 28.5014L47.6219 27.393L50.555 28.179L50.2581 29.2874L50.623 29.3852L50.7172 29.0337C52.207 28.9886 53.162 28.8485 53.5824 28.6135L54.2227 29.0893L56.3719 29.6652L54.8761 35.2476L57.7687 36.0227L57.6116 37.6901C57.346 37.7445 57.1653 37.7878 57.0697 37.8202L55.7928 38.2603C56.3269 38.3938 56.9389 38.4708 57.6287 38.4915ZM58.0304 35.8031L55.2053 35.0461L55.6363 33.4376L56.4879 33.6658L56.5784 33.3279L55.7269 33.0997L56.0927 31.7345L56.9442 31.9626L57.0203 31.6788L56.1687 31.4506L56.5708 29.9502L59.3958 30.7072L58.0304 35.8031ZM52.4361 30.5664L52.3891 30.7421L53.2271 30.9666L52.8613 32.3318L52.0233 32.1073L51.9327 32.4452L52.7708 32.6698L52.3398 34.2783L49.8797 33.6191L49.7901 33.8993L52.534 34.6346L53.6351 30.5254C53.3676 30.5504 52.9836 30.5778 52.483 30.6079L52.4361 30.5664ZM49.617 31.6798L49.3816 32.5584C49.5486 32.5839 49.6727 32.6075 49.7538 32.6292L49.9819 31.7776L49.617 31.6798ZM48.4327 36.0999C48.9641 36.3871 49.3914 36.6127 49.7146 36.7766C50.0491 36.9338 50.3581 37.0601 50.6417 37.1554C50.1446 36.7035 49.7142 36.3273 49.3504 36.027L50.5117 35.8022L48.9707 35.3893L49.0685 35.0243L48.7369 34.9644L48.4327 36.0999ZM52.2418 36.2658C52.5138 36.5125 52.8151 36.7574 53.146 37.0006C53.2211 36.9724 53.4829 36.8784 53.9314 36.7185L52.2418 36.2658Z" fill="white"/>
<path d="M76.5913 35.1149C76.4911 35.5933 76.4263 36.0358 76.3969 36.4422C76.3747 36.8376 76.3596 37.3125 76.3516 37.867C75.167 37.9906 73.9234 37.9456 72.6207 37.7318C71.9805 38.1801 71.315 38.5527 70.6241 38.8496C69.9404 39.1355 69.1375 39.3748 68.2152 39.5675C68.0348 39.0239 67.7802 38.4671 67.4515 37.8973C67.5218 38.4163 67.4932 38.8035 67.3655 39.0589C67.245 39.3033 66.9997 39.4975 66.6295 39.6416C66.2665 39.7747 65.6039 39.956 64.6417 40.1857L64.3432 40.2624C64.1663 39.6894 64.0031 39.228 63.8537 38.878C63.7043 38.5279 63.4826 38.174 63.1886 37.8161C63.5539 37.7398 63.8112 37.6717 63.9608 37.6118C64.1084 37.5428 64.1892 37.4735 64.2032 37.4039C64.2245 37.3232 64.2189 37.2052 64.1864 37.05L64.1435 36.8445L63.2675 37.0991C63.0153 36.0748 62.7546 35.2382 62.4855 34.5892L63.6139 34.3105L63.3963 33.2694L62.5059 33.4555L61.9992 31.031L62.8895 30.8449L62.6548 29.7217L65.6272 29.1005L65.8619 30.2237L66.2318 30.1464L66.1573 29.7902C67.4667 29.0782 68.256 28.5224 68.5251 28.1231L69.3112 28.259L71.4892 27.8038L72.6716 33.4609L75.6029 32.8483L76.2146 34.4074C76.002 34.5757 75.8604 34.6958 75.7896 34.7678L74.8484 35.7365C75.3853 35.6148 75.9662 35.4076 76.5913 35.1149ZM75.7374 32.5343L72.8746 33.1326L72.5339 31.5026L73.3968 31.3222L73.3253 30.9798L72.4623 31.1601L72.1731 29.7767L73.0361 29.5963L72.976 29.3086L72.113 29.489L71.7952 27.9686L74.6581 27.3702L75.7374 32.5343ZM68.3828 30.383L68.42 30.5611L69.2692 30.3836L69.5584 31.7671L68.7091 31.9446L68.7807 32.287L69.63 32.1095L69.9706 33.7395L67.4777 34.2606L67.5241 34.5511L70.3047 33.9699L69.4344 29.8058C69.2069 29.9487 68.8766 30.1464 68.4433 30.399L68.3828 30.383ZM66.3687 32.6482L66.5548 33.5385C66.7153 33.4859 66.8367 33.451 66.9189 33.4338L66.7385 32.5709L66.3687 32.6482ZM67.3048 37.1273C67.9088 37.1441 68.3919 37.1527 68.7542 37.1532C69.1237 37.1427 69.4564 37.116 69.7525 37.0732C69.105 36.894 68.5513 36.7524 68.0911 36.6485L69.0262 35.9241L67.4647 36.2504L67.3874 35.8806L67.0644 35.9767L67.3048 37.1273ZM70.7795 35.5576C71.1335 35.6552 71.5129 35.7379 71.9179 35.8058C71.9723 35.7467 72.1635 35.5447 72.4917 35.1998L70.7795 35.5576Z" fill="white"/>
</svg>
