<svg width="87" height="51" viewBox="0 0 87 51" fill="none" xmlns="http://www.w3.org/2000/svg">
<rect x="0.740234" y="0.963257" width="86" height="50" rx="12.7438" fill="#169CC6"/>
<path fill-rule="evenodd" clip-rule="evenodd" d="M32.8573 28.4153C33.1508 27.0442 33.1926 25.5952 32.9398 24.1289C31.8785 17.9721 26.0271 13.8415 19.8704 14.9028C13.7137 15.9641 9.58302 21.8155 10.6443 27.9722C11.7056 34.1289 17.557 38.2596 23.7137 37.1983C26.7566 36.6737 29.3045 34.9791 30.9754 32.6559C31.0857 32.7083 31.2015 32.7527 31.3225 32.788L33.7902 33.5091C35.0168 33.8676 36.3017 33.1638 36.6602 31.9372C37.0186 30.7106 36.3148 29.4257 35.0882 29.0672L32.8573 28.4153ZM19.5552 19.131C16.4769 19.6617 14.4115 22.5874 14.9422 25.6657L15.4663 28.706C15.9969 31.7844 18.9226 33.8497 22.001 33.319L24.0278 32.9696C27.1062 32.439 29.1715 29.5133 28.6409 26.4349L28.1168 23.3946C27.5861 20.3163 24.6604 18.251 21.5821 18.7816L19.5552 19.131ZM18.0687 25.6485C17.509 25.7449 17.1335 26.2769 17.23 26.8366L17.3174 27.3433C17.4138 27.903 17.9458 28.2785 18.5055 28.182L19.0122 28.0947C19.5719 27.9982 19.9474 27.4663 19.8509 26.9066L19.7636 26.3998C19.6671 25.8401 19.1352 25.4646 18.5755 25.5611L18.0687 25.6485Z" fill="white"/>
<path d="M56.8162 15.0218L55.0153 15.5044C54.8999 15.6514 54.8121 15.7572 54.752 15.8216L55.8821 15.4898L56.3747 15.8658C56.5488 15.9739 56.6877 16.077 56.7913 16.175L54.2404 16.9456C54.2103 16.9053 54.1295 16.8205 53.9981 16.6912C53.6578 17.0823 53.258 17.5039 52.7986 17.9559C53.1597 17.8592 53.4889 17.7516 53.7861 17.6333C53.8354 17.6007 53.8553 17.5664 53.8456 17.5303C53.8262 17.4581 53.7623 17.3639 53.6538 17.2479C54.1582 17.1805 54.5979 17.1062 54.9728 17.0251C55.3544 16.9325 55.8115 16.8149 56.3441 16.6722C56.6905 16.918 56.9061 17.1988 56.9907 17.5148C57.0778 17.8398 57.0162 18.1514 56.8058 18.4496C56.6021 18.7364 56.2712 18.946 55.8133 19.0784C55.5539 19.1575 55.1354 19.2745 54.5576 19.4293C52.3911 20.0098 50.8131 20.3311 49.8235 20.3931C49.3615 20.691 48.8869 20.9778 48.3996 21.2535L48.4402 21.2426L48.5817 21.7707L50.2337 21.3281L50.0922 20.8L52.7867 20.078L52.9282 20.6061L54.5531 20.1707L54.4116 19.6426L57.1603 18.9061L57.9476 21.8444L55.1989 22.5809L55.1626 22.4455L49.1912 24.0455L49.2275 24.181L46.4788 24.9175L45.6915 21.9792L46.03 21.8885C45.6031 21.3062 45.0644 20.8846 44.4139 20.6235L45.8499 20.0791L46.313 19.9115C45.5316 19.9564 44.8788 20.0297 44.3546 20.1314C44.5 19.8796 44.6171 19.6306 44.7059 19.3842C44.7947 19.1379 44.9027 18.8187 45.0298 18.4267L47.3356 18.041C47.2976 17.9351 47.2495 17.7739 47.1915 17.5572L48.7206 17.0894C48.2312 17.1045 47.7692 17.1315 47.3346 17.1706L48.0792 16.1583L46.6575 16.5393L46.9586 17.6631L44.0474 18.4432L43.1512 15.0987L48.0123 13.7962L47.9035 13.3899L50.9365 12.5772L51.0454 12.9835L55.92 11.6773L56.8162 15.0218ZM51.4418 16.7376C52.0106 16.1885 52.5021 15.6215 52.9161 15.0364L53.709 15.0707L53.6038 14.678L49.8666 15.6794C50.5889 15.631 51.2616 15.5959 51.8847 15.574L51.4418 16.7376ZM50.0607 17.9204C50.4168 17.6605 50.7343 17.4013 51.0133 17.1427C50.634 17.0992 50.2063 17.0735 49.7301 17.0657C49.7965 17.2414 49.8382 17.3608 49.8551 17.424C49.9385 17.6629 50.007 17.8284 50.0607 17.9204ZM47.4534 18.3723C47.4207 18.7197 47.3435 19.1177 47.2219 19.5663C47.3976 19.4999 47.6136 19.4033 47.8699 19.2766C47.7088 19.0005 47.57 18.6991 47.4534 18.3723Z" fill="white"/>
<path d="M72.3923 14.0328L77.321 15.3535L76.5482 18.2376L75.2754 17.8966L75.1013 18.5465L74.6815 18.434C74.8673 19.1127 75.0986 19.7842 75.3753 20.4485C74.9094 20.3818 74.3863 20.348 73.806 20.3473C73.2257 20.3466 72.723 20.3813 72.2979 20.4512C72.2097 20.1663 72.154 19.9772 72.1306 19.8839L63.94 18.0085C63.9861 17.6919 64.0078 17.4123 64.0051 17.1697C64.0138 16.9205 63.9971 16.5677 63.9549 16.1113L65.7802 16.5569L66.2322 16.17L64.7021 15.7601L64.8762 15.1101L63.5899 14.7654L64.3627 11.8813L69.2915 13.202L69.4112 12.7551L72.512 13.586L72.3923 14.0328ZM73.9422 16.6976L74.0184 16.4132L66.7065 14.454L66.6303 14.7384L73.9422 16.6976ZM71.8348 18.0631L71.7974 17.6612L69.0757 16.932L68.6752 17.2891L71.8348 18.0631ZM74.8484 23.0648L70.204 21.8203L70.1314 22.0911L75.1008 23.4227L74.6147 25.2371L61.7782 21.7976L62.2644 19.9832L67.2338 21.3147L67.3063 21.0439L62.6619 19.7994L63.1046 18.1475L67.749 19.3919L67.8288 19.094L70.7265 19.8705L70.6466 20.1684L75.2911 21.4128L74.8484 23.0648Z" fill="white"/>
<path d="M57.6182 39.4619C57.3125 39.8444 57.0547 40.2107 56.8448 40.5608C56.6463 40.9043 56.4183 41.3221 56.1606 41.8142C55.0456 41.3897 53.954 40.7876 52.8858 40.0079C52.1109 40.1196 51.3475 40.1521 50.5957 40.1054C49.8553 40.0522 49.0293 39.9034 48.1175 39.6591C48.2019 39.0915 48.2258 38.4787 48.1893 37.8207C48.0177 38.3165 47.8171 38.6498 47.5876 38.8205C47.3694 38.9846 47.0624 39.0474 46.6663 39.009C46.2817 38.964 45.6073 38.8268 44.6432 38.5975L44.3416 38.5312C44.4423 37.939 44.5049 37.4527 44.5294 37.0722C44.5539 36.6918 44.5156 36.2752 44.4144 35.8224C44.7755 35.9191 45.0364 35.9745 45.1971 35.9885C45.3603 35.9935 45.4638 35.9681 45.5078 35.9122C45.5633 35.8496 45.6116 35.7416 45.6527 35.5882L45.7071 35.385L44.8088 35.2169C45.0461 34.1872 45.191 33.3214 45.2436 32.6195L46.3783 32.88L46.6541 31.851L45.7739 31.6151L46.4161 29.2184L47.2963 29.4543L47.5938 28.3439L50.5321 29.1313L50.2346 30.2416L50.6002 30.3396L50.6945 29.9875C52.1869 29.9423 53.1436 29.802 53.5647 29.5665L54.2062 30.0432L56.3591 30.6201L54.8607 36.2123L57.7584 36.9887L57.6011 38.6591C57.3349 38.7136 57.154 38.757 57.0582 38.7894L55.779 39.2303C56.3141 39.364 56.9271 39.4412 57.6182 39.4619ZM58.0205 36.7687L55.1905 36.0104L55.6223 34.3991L56.4753 34.6277L56.566 34.2892L55.713 34.0606L56.0794 32.693L56.9325 32.9216L57.0087 32.6372L56.1556 32.4086L56.5584 30.9056L59.3883 31.6639L58.0205 36.7687ZM52.4165 31.5228L52.3693 31.6989L53.2088 31.9238L52.8424 33.2914L52.0029 33.0665L51.9122 33.405L52.7517 33.6299L52.3199 35.2413L49.8555 34.5809L49.7658 34.8617L52.5145 35.5982L53.6175 31.4818C53.3496 31.5068 52.9649 31.5343 52.4634 31.5644L52.4165 31.5228ZM49.5924 32.6383L49.3566 33.5184C49.5239 33.5439 49.6482 33.5675 49.7294 33.5893L49.958 32.7362L49.5924 32.6383ZM48.406 37.066C48.9384 37.3538 49.3664 37.5798 49.6901 37.7439C50.0252 37.9014 50.3348 38.0279 50.6188 38.1234C50.1209 37.6707 49.6898 37.2939 49.3253 36.9931L50.4886 36.7678L48.945 36.3542L49.043 35.9886L48.7107 35.9286L48.406 37.066ZM52.2218 37.2322C52.4942 37.4794 52.7961 37.7248 53.1276 37.9684C53.2028 37.9402 53.4651 37.846 53.9144 37.6858L52.2218 37.2322Z" fill="white"/>
<path d="M76.6005 36.0791C76.5001 36.5584 76.4352 37.0016 76.4058 37.4087C76.3835 37.8048 76.3684 38.2806 76.3604 38.836C75.1737 38.9599 73.9279 38.9148 72.6229 38.7006C71.9816 39.1497 71.3149 39.5229 70.6228 39.8204C69.938 40.1067 69.1336 40.3464 68.2096 40.5395C68.029 39.9949 67.774 39.4372 67.4446 38.8663C67.5151 39.3863 67.4864 39.7742 67.3585 40.03C67.2378 40.2748 66.992 40.4694 66.6212 40.6138C66.2576 40.747 65.5938 40.9287 64.6299 41.1588L64.3309 41.2357C64.1536 40.6617 63.9902 40.1994 63.8405 39.8487C63.6909 39.4981 63.4688 39.1436 63.1743 38.785C63.5402 38.7085 63.798 38.6403 63.9478 38.5804C64.0957 38.5113 64.1766 38.4419 64.1907 38.3721C64.212 38.2913 64.2064 38.1731 64.1739 38.0176L64.1308 37.8118L63.2533 38.0668C63.0006 37.0407 62.7395 36.2026 62.47 35.5524L63.6003 35.2732L63.3823 34.2304L62.4904 34.4168L61.9828 31.9881L62.8747 31.8016L62.6395 30.6765L65.6171 30.0541L65.8523 31.1793L66.2228 31.1019L66.1482 30.7451C67.4599 30.0318 68.2505 29.4751 68.5202 29.075L69.3077 29.2112L71.4894 28.7552L72.6739 34.4222L75.6103 33.8085L76.2232 35.3703C76.0102 35.5389 75.8683 35.6593 75.7974 35.7314L74.8545 36.7018C75.3923 36.5798 75.9743 36.3723 76.6005 36.0791ZM75.7451 33.4939L72.8772 34.0933L72.5359 32.4604L73.4004 32.2797L73.3287 31.9367L72.4642 32.1174L72.1746 30.7315L73.0391 30.5508L72.9788 30.2627L72.1144 30.4433L71.796 28.9202L74.6639 28.3208L75.7451 33.4939ZM68.3775 31.3389L68.4148 31.5173L69.2656 31.3395L69.5552 32.7254L68.7045 32.9032L68.7762 33.2462L69.6269 33.0684L69.9682 34.7013L67.4709 35.2233L67.5174 35.5143L70.3029 34.9321L69.431 30.7607C69.2032 30.9038 68.8722 31.1019 68.4382 31.3549L68.3775 31.3389ZM66.3599 33.608L66.5463 34.5C66.7072 34.4472 66.8288 34.4123 66.9111 34.3951L66.7304 33.5306L66.3599 33.608ZM67.2977 38.095C67.9027 38.1118 68.3867 38.1205 68.7496 38.121C69.1197 38.1105 69.4531 38.0837 69.7497 38.0409C69.1011 37.8613 68.5463 37.7195 68.0854 37.6154L69.0221 36.8897L67.4579 37.2166L67.3804 36.8461L67.0568 36.9424L67.2977 38.095ZM70.7785 36.5226C71.1331 36.6203 71.5132 36.7032 71.9189 36.7712C71.9733 36.712 72.165 36.5097 72.4937 36.1641L70.7785 36.5226Z" fill="white"/>
</svg>
